<svg width="126" height="126" viewBox="0 0 126 126" xmlns="http://www.w3.org/2000/svg" xmlns:xlink="http://www.w3.org/1999/xlink"><defs><circle id="b" cx="49" cy="49" r="49"/><filter x="-26.5%" y="-16.3%" width="153.1%" height="153.1%" filterUnits="objectBoundingBox" id="a"><feOffset dy="10" in="SourceAlpha" result="shadowOffsetOuter1"/><feGaussianBlur stdDeviation="7" in="shadowOffsetOuter1" result="shadowBlurOuter1"/><feColorMatrix values="0 0 0 0 0 0 0 0 0 0 0 0 0 0 0 0 0 0 0.1 0" in="shadowBlurOuter1"/></filter><linearGradient x1="44.557%" y1="-5.01%" x2="42.417%" y2="120.933%" id="c"><stop stop-color="#47EABD" offset="0%"/><stop stop-color="#04CB94" offset="59.228%"/><stop stop-color="#5CAAFF" offset="100%"/></linearGradient></defs><g fill="none" fill-rule="evenodd"><g transform="translate(14 4)"><use fill="#000" filter="url(#a)" xlink:href="#b"/><use fill="#FFF" xlink:href="#b"/></g><path d="M12.15 28.8H9.8l.286 1h1.757l.308-1zm.309-1l.308-1h-3.54l.286 1h2.946zm-2.33 6h1.666l-.027-1h-1.614l-.025 1zm-.024 1l-.448 18h2.646l-.482-18h-1.716zm.074-3h1.562l-.027-1h-1.51l-.025 1zm1.321-18h2.19l3.318 4h-12l3.458-4H10.5v-5h1v5zm2.143 39h.753l2.666 3h-2.09l.56 1h1.004l4.245 5h-2.45l4.369 7.802h-1.039L15.417 61.8H6.765l-5.8 7.802H0L4.058 61.8H.78l4.624-5h1.253l.52-1H4.5l2.904-3h1.008l.944-22.444-.622-3.556H5.233l-2.225-2h16l-2.25 2h-3.46l-.671 3.556L13.643 52.8zm-.136 3H8.538l-.494 1h5.995l-.532-1zm-9.796-37h14.805l1.492 2h-18l1.703-2zm-.498 5l-1.205-2h18l-1.214 2H3.214zM10.5.8h1v7h-1v-7z" transform="translate(52 18)" fill="url(#c)"/></g></svg>