<svg width="126" height="126" viewBox="0 0 126 126" xmlns="http://www.w3.org/2000/svg" xmlns:xlink="http://www.w3.org/1999/xlink"><defs><circle id="b" cx="49" cy="49" r="49"/><filter x="-26.5%" y="-16.3%" width="153.1%" height="153.1%" filterUnits="objectBoundingBox" id="a"><feOffset dy="10" in="SourceAlpha" result="shadowOffsetOuter1"/><feGaussianBlur stdDeviation="7" in="shadowOffsetOuter1" result="shadowBlurOuter1"/><feColorMatrix values="0 0 0 0 0 0 0 0 0 0 0 0 0 0 0 0 0 0 0.1 0" in="shadowBlurOuter1"/></filter><linearGradient x1="65.88%" y1="0%" x2="102.504%" y2="155.019%" id="c"><stop stop-color="#7FCEFE" offset="0%"/><stop stop-color="#147CE7" offset="100%"/></linearGradient></defs><g fill="none" fill-rule="evenodd"><g transform="translate(14 4)"><use fill="#000" filter="url(#a)" xlink:href="#b"/><use fill="#FFF" xlink:href="#b"/></g><path d="M32 67h34v11H32V67zm-2.23-9h38.47c2.433 3.742 5.4 5.726 7.76 6.747-2.07 1.048-4.836 1.377-6.938 1.203-.067-.013-.13-.064-.2-.064H29.208c-.072 0-.135.053-.205.07-1.736.157-4.75-.07-7.004-1.204 2.36-1.018 5.335-2.999 7.77-6.752zM26 48.906c2.054-.889 4.644-2.622 6.763-5.906h33.484c2.116 3.275 4.7 5.01 6.753 5.904-1.802.917-4.209 1.204-6.038 1.052-.059-.012-.114-.056-.175-.056H32.275c-.063 0-.118.047-.18.06-1.51.139-4.133-.06-6.095-1.052v-.002zm5-12.531c1.617-.508 3.656-1.498 5.324-3.375h26.36c1.666 1.871 3.7 2.863 5.316 3.374-1.419.523-3.313.688-4.753.601-.047-.007-.09-.032-.138-.032h-27.17c-.049 0-.092.027-.14.035-1.19.078-3.254-.035-4.799-.602v-.001zM42.734 26H56.27c.856 1.403 1.9 2.147 2.73 2.53-.729.393-1.701.516-2.441.451-.024-.005-.046-.024-.07-.024H42.536c-.026 0-.048.02-.073.026-.61.06-1.67-.026-2.464-.45.83-.383 1.877-1.126 2.734-2.533zM33 51h32a1 1 0 0 1 1 1v4a1 1 0 0 1-1 1H33a1 1 0 0 1-1-1v-4a1 1 0 0 1 1-1zm2-13h28a1 1 0 0 1 1 1v2a1 1 0 0 1-1 1H35a1 1 0 0 1-1-1v-2a1 1 0 0 1 1-1zm5-8h19a1 1 0 0 1 0 2H40a1 1 0 0 1 0-2zm9.06-10L54 25H44l5.06-5z" fill="url(#c)" fill-rule="nonzero" transform="translate(14 4)"/><path fill="#FFF" fill-rule="nonzero" d="M61 75h4v7h-4z"/><path fill="#FFF" fill-rule="nonzero" d="M70 76h4v6h-4z"/><path fill="#FFF" fill-rule="nonzero" d="M52 76h4v6h-4z"/></g></svg>